<svg width="24" height="24" viewBox="0 0 24 24" fill="none" xmlns="http://www.w3.org/2000/svg">
<path d="M20.2097 7.61607L17.8626 0H14.2714L11.9999 1.13573L9.72834 0H6.13707L3.78996 7.61607L0.843653 8.69639C0.431577 13.1958 7.515 14.2364 11.9998 14.203C16.4808 14.2384 23.5728 13.1922 23.156 8.69639L20.2097 7.61607ZM18.688 7.45308H5.31171L5.71619 6.14059H18.2835L18.688 7.45308ZM9.39637 1.40624L11.9998 2.708L14.6033 1.40624H16.8245L17.8501 4.73435H6.14959L7.17526 1.40624H9.39637ZM19.1703 11.7425C15.8053 13.1376 8.19445 13.1376 4.82946 11.7424C3.13025 11.0861 2.50105 10.3047 2.31561 9.65446L4.48413 8.85932H19.5156L21.6842 9.65446C21.4987 10.3046 20.8695 11.0861 19.1703 11.7425Z" fill="white"/>
<path d="M17.8085 15.375C16.1324 15.375 14.6767 16.3362 13.9633 17.7363C12.7907 17.0311 11.2026 17.0285 10.0353 17.7343C9.32167 16.3353 7.86649 15.375 6.19124 15.375C0.470598 15.6117 0.471395 23.7638 6.19128 23.9999C8.76527 24.0191 10.8135 21.6855 10.4688 19.1373C11.3277 18.436 12.6684 18.4402 13.531 19.138C13.1871 21.6861 15.2346 24.0191 17.8086 23.9999C23.5293 23.7633 23.5283 15.6111 17.8085 15.375ZM6.19124 22.5937C4.58873 22.5937 3.285 21.29 3.285 19.6875C3.44466 15.832 8.93842 15.8331 9.09747 19.6875C9.09747 21.29 7.79374 22.5937 6.19124 22.5937ZM17.8085 22.5937C16.206 22.5937 14.9023 21.29 14.9023 19.6875C15.0619 15.832 20.5557 15.8331 20.7148 19.6875C20.7148 21.29 19.411 22.5937 17.8085 22.5937Z" fill="white"/>
</svg>
