<svg width="23" height="15" viewBox="0 0 23 15" fill="none" xmlns="http://www.w3.org/2000/svg">
<path d="M19.3833 7.61607L17.0362 0H13.4449L11.1734 1.13573L8.90189 0H5.31063L2.96352 7.61607L0.0172065 8.69639C-0.394869 13.1958 6.68856 14.2364 11.1734 14.203C15.6543 14.2384 22.7463 13.1922 22.3296 8.69639L19.3833 7.61607ZM17.8616 7.45308H4.48526L4.88974 6.14059H17.4571L17.8616 7.45308ZM8.56992 1.40624L11.1734 2.708L13.7769 1.40624H15.998L17.0237 4.73435H5.32314L6.34881 1.40624H8.56992ZM18.3438 11.7425C14.9788 13.1376 7.36801 13.1376 4.00301 11.7424C2.3038 11.0861 1.6746 10.3047 1.48917 9.65446L3.65769 8.85932H18.6891L20.8577 9.65446C20.6723 10.3046 20.043 11.0861 18.3438 11.7425Z" fill="#0A0816"/>
</svg>
