<svg width="35" height="35" viewBox="0 0 35 35" fill="none" xmlns="http://www.w3.org/2000/svg">
<path d="M23.3333 30.625V27.7083C23.3333 26.1612 22.7187 24.6775 21.6248 23.5835C20.5308 22.4896 19.0471 21.875 17.5 21.875H7.29165C5.74455 21.875 4.26082 22.4896 3.16686 23.5835C2.07289 24.6775 1.45831 26.1612 1.45831 27.7083V30.625" stroke="#FFDD00" stroke-width="2" stroke-linecap="round" stroke-linejoin="round"/>
<path d="M12.3958 16.0417C15.6175 16.0417 18.2292 13.43 18.2292 10.2083C18.2292 6.98667 15.6175 4.375 12.3958 4.375C9.17417 4.375 6.5625 6.98667 6.5625 10.2083C6.5625 13.43 9.17417 16.0417 12.3958 16.0417Z" stroke="#FFDD00" stroke-width="2" stroke-linecap="round" stroke-linejoin="round"/>
<path d="M29.1667 11.6667V20.4167" stroke="#FFDD00" stroke-width="2" stroke-linecap="round" stroke-linejoin="round"/>
<path d="M33.5417 16.0417H24.7917" stroke="#FFDD00" stroke-width="2" stroke-linecap="round" stroke-linejoin="round"/>
</svg>
