<svg width="35" height="35" viewBox="0 0 35 35" fill="none" xmlns="http://www.w3.org/2000/svg">
<g clip-path="url(#clip0)">
<path d="M31.1728 27.6167H29.4938C29.1526 24.5446 26.5408 22.1476 23.3793 22.1476H20.3713V13.3273C22.7881 12.231 24.4731 9.79518 24.4731 6.97312C24.4731 3.12813 21.345 0 17.5 0C13.655 0 10.5269 3.12813 10.5269 6.97312C10.5269 9.79511 12.2119 12.2309 14.6287 13.3273V22.1476H11.6207C8.45915 22.1476 5.84731 24.5446 5.50611 27.6167H3.82722C3.44965 27.6167 3.14359 27.9228 3.14359 28.3003V34.3164C3.14359 34.6939 3.44965 35 3.82722 35H31.1728C31.5504 35 31.8564 34.6939 31.8564 34.3164V28.3003C31.8564 27.9228 31.5504 27.6167 31.1728 27.6167ZM11.8942 6.97312C11.8942 3.88204 14.4089 1.36728 17.5 1.36728C20.5911 1.36728 23.1059 3.88204 23.1059 6.97312C23.1059 10.0642 20.5911 12.579 17.5 12.579C14.4089 12.579 11.8942 10.0642 11.8942 6.97312ZM15.996 13.7824C16.4806 13.8893 16.9837 13.9462 17.5 13.9462C18.0163 13.9462 18.5195 13.8894 19.004 13.7824V22.1476H15.996V13.7824ZM30.4892 33.6327H4.51086V28.984H14.4236C14.8012 28.984 15.1073 28.6779 15.1073 28.3003C15.1073 27.9228 14.8012 27.6167 14.4236 27.6167H6.88487C7.21766 25.3008 9.21416 23.5149 11.6207 23.5149H23.3793C25.7859 23.5149 27.7824 25.3008 28.1151 27.6167H20.5763C20.1987 27.6167 19.8927 27.9228 19.8927 28.3003C19.8927 28.6779 20.1987 28.984 20.5763 28.984H30.4892V33.6327Z" fill="#FFDD00"/>
<path d="M17.5 27.6165C17.3202 27.6165 17.1438 27.6896 17.0167 27.8168C16.8895 27.9439 16.8164 28.1203 16.8164 28.3001C16.8164 28.4806 16.8895 28.6563 17.0167 28.7834C17.1438 28.9106 17.3202 28.9837 17.5 28.9837C17.6798 28.9837 17.8562 28.9106 17.9833 28.7834C18.1105 28.6563 18.1836 28.4806 18.1836 28.3001C18.1836 28.1203 18.1105 27.9439 17.9833 27.8168C17.8562 27.6896 17.6798 27.6165 17.5 27.6165Z" fill="#FFDD00"/>
</g>
<defs>
<clipPath id="clip0">
<rect width="35" height="35" fill="white"/>
</clipPath>
</defs>
</svg>
