<svg width="48" height="48" viewBox="0 0 48 48" fill="none" xmlns="http://www.w3.org/2000/svg">
<g clip-path="url(#clip0)">
<path d="M47.9746 30.0397C47.8551 27.2895 47.3768 24.2404 46.6593 21.3707C45.9419 18.6205 45.0451 16.0497 43.969 14.0768C39.7839 6.72308 35.2402 7.85902 29.7997 9.29389C28.0659 9.71239 26.2125 10.1907 24.2993 10.37H23.7015C21.7883 10.1907 19.935 9.71239 18.2012 9.29389C12.7606 7.91881 8.21689 6.72308 4.03186 14.1366C2.95571 16.1095 1.99914 18.6803 1.34149 21.4305C0.624057 24.3002 0.145769 27.3493 0.0261964 30.0994C-0.0933758 33.1485 0.205555 35.3606 0.863201 36.9151C1.52085 38.3499 2.47743 39.2467 3.73293 39.6054C4.86887 39.9044 6.18416 39.7848 7.55924 39.1869C9.8909 38.2304 12.5813 36.1976 15.2119 33.7464C17.0652 31.9528 20.5328 31.056 24.0004 31.056C27.468 31.056 30.9356 31.9528 32.789 33.7464C35.4196 36.1976 38.1099 38.2304 40.4416 39.1869C41.8167 39.725 43.132 39.9044 44.2679 39.6054C45.4636 39.2467 46.48 38.4097 47.1376 36.8553C47.7953 35.3606 48.0942 33.1485 47.9746 30.0397ZM45.1049 36.0183C44.7462 36.8553 44.2679 37.3336 43.67 37.5129C43.0124 37.6923 42.1754 37.5727 41.2188 37.214C39.1263 36.377 36.6751 34.5236 34.2836 32.2517C32.0117 29.9799 28.0061 28.8439 24.0004 28.8439C19.9947 28.8439 15.9891 29.9799 13.6574 32.1322C11.2062 34.404 8.75496 36.3172 6.72224 37.0944C5.76566 37.4531 4.92866 37.6325 4.27101 37.3934C3.67315 37.214 3.19486 36.7357 2.83614 35.8987C2.35785 34.7628 2.11871 32.9094 2.23828 30.1592C2.35785 27.5884 2.77636 24.6589 3.49379 21.9088C4.15144 19.3379 4.98844 16.9465 6.0048 15.1529C9.29304 9.2341 13.1193 10.1907 17.6631 11.3864C19.5165 11.8647 21.4296 12.343 23.5221 12.5223C23.5819 12.5223 23.5819 12.5223 23.6417 12.5223H24.2993C24.3591 12.5223 24.3591 12.5223 24.4189 12.5223C26.5712 12.343 28.4844 11.8647 30.3377 11.3864C34.8815 10.2505 38.7078 9.2341 41.996 15.1529C43.0124 16.9465 43.8494 19.2782 44.507 21.9088C45.1647 24.6589 45.643 27.5286 45.7625 30.1592C45.8821 32.9094 45.643 34.7628 45.1049 36.0183Z" fill="#FFDD00"/>
<path d="M18.4998 18.3813C17.9019 17.8432 17.1845 17.4247 16.3475 17.365C16.2877 16.5877 15.929 15.8105 15.3909 15.2724L15.3311 15.2127C14.6735 14.555 13.8365 14.1963 12.8799 14.1963C11.9233 14.1963 11.0265 14.6148 10.4286 15.2127C9.89057 15.7507 9.47207 16.5279 9.41229 17.365C8.57528 17.4247 7.85785 17.7835 7.25999 18.3215L7.2002 18.3813C6.54255 19.039 6.18384 19.876 6.18384 20.8325C6.18384 21.7891 6.60234 22.6859 7.2002 23.2838C7.79806 23.8816 8.51549 24.2403 9.41229 24.3001C9.47207 25.1371 9.83079 25.9144 10.4286 26.4524C11.0863 27.1101 11.9233 27.4688 12.8799 27.4688C13.8365 27.4688 14.7332 27.0503 15.3311 26.4524C15.8692 25.8546 16.2877 25.1371 16.3475 24.3001C17.1845 24.2403 17.9617 23.8816 18.4998 23.2838C19.1574 22.6261 19.5161 21.7891 19.5161 20.8325C19.5161 19.876 19.0976 18.9792 18.4998 18.3813ZM17.0051 21.7293C16.766 21.9685 16.467 22.0881 16.1083 22.0881H15.2713C14.6735 22.0881 14.1354 22.5663 14.1354 23.224V24.0012C14.1354 24.3599 14.0158 24.6589 13.7767 24.898C13.5375 25.1371 13.2386 25.2567 12.8799 25.2567C12.5212 25.2567 12.2222 25.1371 11.9831 24.898C11.7439 24.6589 11.6244 24.3599 11.6244 24.0012V23.1642C11.6244 22.5663 11.1461 22.0283 10.4884 22.0283H9.65143C9.29271 22.0283 8.99378 21.9087 8.75464 21.6695C8.57528 21.4902 8.39592 21.1913 8.39592 20.8325C8.39592 20.4738 8.51549 20.1749 8.75464 19.9358C8.75464 19.9358 8.75464 19.9358 8.81442 19.876C9.05357 19.6966 9.3525 19.577 9.65143 19.577H10.4884C11.0863 19.577 11.6244 19.0987 11.6244 18.4411V17.6041C11.6244 17.2454 11.7439 16.9464 11.9831 16.7073C12.2222 16.4682 12.5212 16.3486 12.8799 16.3486C13.2386 16.3486 13.5375 16.4682 13.7767 16.7073C13.7767 16.7073 13.7767 16.7073 13.8365 16.7671C14.0158 17.0062 14.1354 17.3052 14.1354 17.6041V18.4411C14.1354 19.039 14.6137 19.577 15.2713 19.577H16.1083C16.467 19.577 16.766 19.6966 17.0051 19.9358C17.2443 20.1749 17.3638 20.4738 17.3638 20.8325C17.3638 21.1913 17.2443 21.4902 17.0051 21.7293Z" fill="#FFDD00"/>
<path d="M34.4028 18.6803C35.5585 18.6803 36.4954 17.7434 36.4954 16.5878C36.4954 15.4321 35.5585 14.4952 34.4028 14.4952C33.2472 14.4952 32.3103 15.4321 32.3103 16.5878C32.3103 17.7434 33.2472 18.6803 34.4028 18.6803Z" fill="#FFDD00"/>
<path d="M34.4028 27.1699C35.5585 27.1699 36.4954 26.233 36.4954 25.0774C36.4954 23.9217 35.5585 22.9849 34.4028 22.9849C33.2472 22.9849 32.3103 23.9217 32.3103 25.0774C32.3103 26.233 33.2472 27.1699 34.4028 27.1699Z" fill="#FFDD00"/>
<path d="M30.158 22.9251C31.3137 22.9251 32.2505 21.9883 32.2505 20.8326C32.2505 19.677 31.3137 18.7401 30.158 18.7401C29.0023 18.7401 28.0655 19.677 28.0655 20.8326C28.0655 21.9883 29.0023 22.9251 30.158 22.9251Z" fill="#FFDD00"/>
<path d="M38.6477 22.9251C39.8033 22.9251 40.7402 21.9883 40.7402 20.8326C40.7402 19.677 39.8033 18.7401 38.6477 18.7401C37.492 18.7401 36.5552 19.677 36.5552 20.8326C36.5552 21.9883 37.492 22.9251 38.6477 22.9251Z" fill="#FFDD00"/>
</g>
<defs>
<clipPath id="clip0">
<rect width="48" height="48" fill="#FFDD00"/>
</clipPath>
</defs>
</svg>
